# xmcd
#
# Track frame offsets:
#   150
#   14646
#   31881
#   52969
#   67821
#   82975
#   100078
#   114035
#
# Disc length: 1705 seconds
#
# Revision: 0
# Processed by: cddbd v1.4PL0 Copyright (c) Steve Scherf et al.
# Submitted via: HCDA 1.3
#
DISCID=5106a708
DTITLE=Reba - Country Songs
DYEAR=1900
DGENRE=Country
TTITLE0=All This Time
TTITLE1=If You See Him
TTITLE2=Burn
TTITLE3=I'm Alright
TTITLE4=Bye Bye
TTITLE5=Buy Me A Rose
TTITLE6=He Will, She Knows
TTITLE7=Cathy's Clown
EXTD=
EXTT0=
EXTT1=
EXTT2=
EXTT3=
EXTT4=
EXTT5=
EXTT6=
EXTT7=
PLAYORDER=
